inDegrees=no
num_controls=7
num_derivatives=13
num_iterations=161
num_multipliers=7
num_parameters=0
num_slacks=7
num_states=26
objective=0.000000
objective_accelerations=0.471838
objective_balance=0.102619
objective_effort=0.356055
objective_height=4.297011
objective_ligament=0.041051
solver_duration=1817.872714
status=Invalid_Number_Detected
success=false
DataType=double
version=3
OpenSimVersion=4.4-2022-07-23-0e9fedc
endheader
time	/jointset/ground_pelvis/pelvis_tilt/value	/jointset/ground_pelvis/pelvis_tx/value	/jointset/ground_pelvis/pelvis_ty/value	/jointset/hip_l/hip_flexion_l/value	/jointset/hip_l/hip_adduction_l/value	/jointset/hip_l/hip_rotation_l/value	/jointset/back/lumbar_extension/value	/jointset/patellofemoral_l/patellar_flexion_l/value	/jointset/knee_l/knee_flexion_l/value	/jointset/knee_l/knee_adduction_l/value	/jointset/knee_l/knee_rotation_l/value	/jointset/ankle_l/ankle_angle_l/value	/jointset/subtalar_l/subtalar_angle_l/value	/jointset/ground_pelvis/pelvis_tilt/speed	/jointset/ground_pelvis/pelvis_tx/speed	/jointset/ground_pelvis/pelvis_ty/speed	/jointset/hip_l/hip_flexion_l/speed	/jointset/hip_l/hip_adduction_l/speed	/jointset/hip_l/hip_rotation_l/speed	/jointset/back/lumbar_extension/speed	/jointset/patellofemoral_l/patellar_flexion_l/speed	/jointset/knee_l/knee_flexion_l/speed	/jointset/knee_l/knee_adduction_l/speed	/jointset/knee_l/knee_rotation_l/speed	/jointset/ankle_l/ankle_angle_l/speed	/jointset/subtalar_l/subtalar_angle_l/speed	/forceset/tau_hip_flexion_l	/forceset/tau_hip_adduction_l	/forceset/tau_hip_rotation_l	/forceset/tau_knee_flexion_l	/forceset/tau_ankle_angle_l	/forceset/tau_subtalar_angle_l	/forceset/tau_lumbar_extension	lambda_cid13_p0	lambda_cid13_p1	lambda_cid13_p2	lambda_cid13_p3	lambda_cid13_p4	lambda_cid13_p5	lambda_cid14_p0	/jointset/ground_pelvis/pelvis_tilt/accel	/jointset/ground_pelvis/pelvis_tx/accel	/jointset/ground_pelvis/pelvis_ty/accel	/jointset/hip_l/hip_flexion_l/accel	/jointset/hip_l/hip_adduction_l/accel	/jointset/hip_l/hip_rotation_l/accel	/jointset/back/lumbar_extension/accel	/jointset/patellofemoral_l/patellar_flexion_l/accel	/jointset/knee_l/knee_flexion_l/accel	/jointset/knee_l/knee_adduction_l/accel	/jointset/knee_l/knee_rotation_l/accel	/jointset/ankle_l/ankle_angle_l/accel	/jointset/subtalar_l/subtalar_angle_l/accel	gamma_cid13_p0	gamma_cid13_p1	gamma_cid13_p2	gamma_cid13_p3	gamma_cid13_p4	gamma_cid13_p5	gamma_cid14_p0
1	-0.5156008101856572	-0.05683244631194213	0.6645229118741328	1.626636905818605	-0.2966010836012372	0.1164801132563374	-0.4363246228983559	1.133661174376297	1.133661174376885	-0.1744206262614142	0.1744489360149321	0.22163428824078	-0.0009501889862931619	-0.01072659323273601	0.0003201124395227999	-0.002757284901078622	0.01556504643423144	0.0007542051551524555	0.001830946454772234	0.000177643639841158	0.006483767186049059	0.006483767186084086	0.0009847558266343145	-0.0002343800586883314	0.002142562124934565	0.001318874539454457	-0.3588416454037995	0.03125874236025802	-0.02045559284086279	-0.2571498245789888	0.0237996633111728	0.03750088295880982	0.3078751798610809	-36.19005608400449	-10.7434488874227	2.216667916716745	14.22907369497925	-706.6313218792681	-48.12853474441379	-2.543276592164311	1.478180447355715	0.1181639933164751	1.343916990219707	-5.048139003425438	-0.2764598710404864	-1.578859600931187	0.01229021030555411	-4.399513751017179	-4.399513751012352	-0.0130004360581233	0.007129170280629486	-1.108480890439334	-0.5318460944866533	2.458223487930322e-09	3.361894218621272e-09	-1.455947739053749e-09	-4.40343359244403e-09	4.409713642311876e-09	2.896210103907726e-09	1.023454917852238e-10
1.01	-0.5156340935582222	-0.05682339454566413	0.6645624330717352	1.62654051104776	-0.2966066994567286	0.1164187906931871	-0.4363226504948184	1.133506584198876	1.133506584198594	-0.1744096693444057	0.1744464816558851	0.221600557973748	-0.0009627156963623595	0.004131878279697261	0.001488324887156495	0.01066092440847048	-0.03488868643983657	-0.001882398088240093	-0.01408961190306	0.0001116017580433384	-0.03738180699695086	-0.03738180699691274	0.001195984437388266	-0.0002445692602914951	-0.008887115447046005	-0.003829908078079363	-0.358435766018418	0.03124831702687154	-0.02045542159711258	-0.2570329974775088	0.02377237274924627	0.0375140577638724	0.3074739211667707	-36.17329721351808	-10.7545416290965	2.221220680659581	14.27255171985218	-706.1848834301716	-48.1443622828834	-2.548539218352898	1.498974061472128	0.1158624257724298	1.340682273308967	-5.050693744851451	-0.2580166611723227	-1.597781224423159	-0.03183652040595528	-4.377078879698616	-4.377078879701815	0.03658605551022141	-0.003309761228326352	-1.099985993524156	-0.5072492529821293	-2.378451507623339e-09	-1.04122651195764e-08	2.371543535564808e-08	-3.211636408851613e-10	-3.055709045876779e-09	5.787068375690867e-09	-5.055610503316605e-09
1.02	-0.5155169335039952	-0.0568027181438531	0.6647361182368315	1.625938238285095	-0.2966388325666907	0.1161984370922052	-0.4363244955501461	1.132913938354082	1.13291393835289	-0.1743969198321955	0.1744442820453383	0.2214565759704071	-0.001026901214126518	0.01936209212360016	0.002645039546130558	0.02407550859786399	-0.08561055193201737	-0.004549245738959855	-0.02997526110943964	-0.0005858454432044798	-0.08112736629018663	-0.08112736629019181	0.001343274882870962	-0.0001834302958059452	-0.01990778513688961	-0.009012886999416466	-0.3580298866329905	0.03123789169345105	-0.02045525035288696	-0.256916170376054	0.02374508218730804	0.03752723256889109	0.3070726624725174	-36.16548328643468	-10.76357711579596	2.224884246737979	14.35296781480821	-705.8523243486968	-48.13326348627413	-2.569012586657101	1.552528913649323	0.115864435584764	1.34319196618865	-5.101765527048091	-0.2825087525058962	-1.571877770640633	-0.11399085359806	-4.375510773064379	-4.375510773068859	-0.02578806911236041	0.02139480349831914	-1.106679314011581	-0.5386853552471911	-8.341101641151313e-09	-2.460362016878739e-08	5.03967465806559e-08	5.978335616779079e-09	-1.120537052286224e-08	5.521317518005224e-09	-1.012088870965721e-08
1.03	-0.5152482103498036	-0.05677049032050817	0.6650436949018106	1.624829870609747	-0.296697811456722	0.1158194146157904	-0.4363323129985824	1.13188408803365	1.131884088031433	-0.1743831812324978	0.1744430355797578	0.2212021838827939	-0.001143167223252905	0.03418093622129791	0.003802568712252302	0.03741521278735732	-0.1358572790255226	-0.00725421953266834	-0.04582200101577705	-0.0006655489294281774	-0.1248581535132555	-0.1248581535132552	0.001377075828946566	-5.567071497418197e-05	-0.03099475661138998	-0.014254196587162	-0.3583733478577425	0.03129622144115878	-0.02047036067389808	-0.2566363208935182	0.02381845316344607	0.03762927443290662	0.307602786613676	-36.14577002922883	-10.8213530270237	2.245521255462324	14.17881452977409	-706.0559813459852	-48.17948299784467	-2.604913974282701	1.416321024564148	0.1160061942608071	1.3256639820607	-4.955271924056357	-0.2656542848951228	-1.590001014386918	0.09215427152475199	-4.374177986984136	-4.374177986981285	0.01385237649678886	0.009978959062446488	-1.113325300008241	-0.5189389191228144	-1.431524131690352e-08	-3.879923231709035e-08	7.709346523556482e-08	1.230045966328114e-08	-1.936201402830481e-08	5.223356363080084e-09	-1.518522122427576e-08
